<mxfile host="app.diagrams.net" agent="Mozilla/5.0 (Macintosh; Intel Mac OS X 10.15; rv:142.0) Gecko/20100101 Firefox/142.0" version="28.1.1">
  <diagram name="Seite-1" id="7jTLnn59OOUZpLqQDI4G">
    <mxGraphModel dx="1088" dy="1404" grid="1" gridSize="10" guides="1" tooltips="1" connect="1" arrows="1" fold="1" page="1" pageScale="1" pageWidth="827" pageHeight="1169" math="0" shadow="0">
      <root>
        <mxCell id="0" />
        <mxCell id="1" parent="0" />
        <mxCell id="Vqp-YqoyTi2O_p_7qMB2-3" value="" style="rounded=1;whiteSpace=wrap;html=1;fillColor=#d5e8d4;strokeColor=#82b366;" vertex="1" parent="1">
          <mxGeometry x="20" y="210" width="500" height="250" as="geometry" />
        </mxCell>
        <mxCell id="Vqp-YqoyTi2O_p_7qMB2-1" value="" style="shape=image;html=1;verticalAlign=top;verticalLabelPosition=bottom;labelBackgroundColor=#ffffff;imageAspect=0;aspect=fixed;image=https://icons.diagrams.net/icon-cache1/Phosphor_Regular_Vol_4-2948/robot-1474.svg" vertex="1" parent="1">
          <mxGeometry x="20" y="210" width="256" height="256" as="geometry" />
        </mxCell>
        <mxCell id="Vqp-YqoyTi2O_p_7qMB2-2" value="" style="shape=image;html=1;verticalAlign=top;verticalLabelPosition=bottom;labelBackgroundColor=#ffffff;imageAspect=0;aspect=fixed;image=https://icons.diagrams.net/icon-cache1/Phosphor_Duotone_Vol_4-2933/robot-duotone-1373.svg" vertex="1" parent="1">
          <mxGeometry x="260" y="210" width="256" height="256" as="geometry" />
        </mxCell>
        <mxCell id="Vqp-YqoyTi2O_p_7qMB2-4" value="" style="rounded=1;whiteSpace=wrap;html=1;fillColor=#f8cecc;strokeColor=#b85450;" vertex="1" parent="1">
          <mxGeometry x="560" y="210" width="500" height="250" as="geometry" />
        </mxCell>
        <mxCell id="Vqp-YqoyTi2O_p_7qMB2-5" value="" style="shape=image;html=1;verticalAlign=top;verticalLabelPosition=bottom;labelBackgroundColor=#ffffff;imageAspect=0;aspect=fixed;image=https://icons.diagrams.net/icon-cache1/Phosphor_Regular_Vol_4-2948/robot-1474.svg" vertex="1" parent="1">
          <mxGeometry x="560" y="210" width="256" height="256" as="geometry" />
        </mxCell>
        <mxCell id="Vqp-YqoyTi2O_p_7qMB2-7" value="" style="shape=image;verticalLabelPosition=bottom;labelBackgroundColor=default;verticalAlign=top;aspect=fixed;imageAspect=0;image=data:image/png,iVBORw0KGgoAAAANSUhEUgAAAgAAAAIACAYAAAD0eNT6AAAABHNCSVQICAgIfAhkiAAAAAlwSFlzAAAOxAAADsQBlSsOGwAAABl0RVh0U29mdHdhcmUAd3d3Lmlua3NjYXBlLm9yZ5vuPBoAABX8SURBVHic7d17rK1pXdjx75kZZmCG24AKaFPFMjM6gxpKJCggIl4grdamIpRU1FDsLQ3/lGLjHzZtGm3axNqYtAS0FW2s1ZpeQKEWGYoKQUuoU+7lqhAuMgPMhcvMnOkf75l4GDgzZ+/zrv28az2fT/LkZHL2zP6td6/Zz3e9a613FQAAAAAAAAAAAAAAAAAAAAAAAAAAAAAAAABwQU6NHgDYiVPVVdW11dVn1jXVQ6orqivP/Fl1a3XTmT8/Wb3rzHpn9fbq3dVdJzg7cAIEAByOq6vvqJ52Zn35Sv/dj1WvPbN+pyUIAICBHlW9sPrDlkfpJ7HeWr24euQJ3D4A4CzfWf1mdUcnt/Hfc91RvbJ6+o5vKwBM7VT1vdUbGrfpn2u9uXpWnlYEgFV9a8smO3qjv6/1h9UTd3QMAGAaD6t+trqz8Zv7+a7T1ctb70WIADCVZ1efaPyGftz18eoHVj8qAHCg7t/yqH/0Br7Wenn1gFWPEAAcmKuqtzR+0157vbn6CyseJwA4GN/cctGd0Zv1rtYnqm9Z7WgBwAF4evXpxm/Su163VM9c6ZgBwF57dvX5xm/OJ7U+V/3gKkcOAPbUd7ZsiKM35ZNen8+ZAAAm9YTq5sZvxqPWrS0XOAKAaVxT/WnjN+HR6+Mt73wAgIN3/w7zrX7HXTdUl1/QEQWAPfCyxm+6W1svuaAjCgAb9+zGb7ZbXX/jAo4rAGzWI6qbGr/RbnV9qnrUsY8uAGzULzd+k936+sVjH10A2KBva/mY3NEb7NbX6eppxzzGALApF1dvbfzmui/rhuqiYx1pANiQ5zR+U9239axjHWkA2IhTLR+FO3pD3bf1ljPHDgD20vc1fjPd1/WXjnG8AWATXtf4jXRf1/VHP9zA+XKKDXbna6r35v+z47qrekzLMQRW5pW2sDs/nM3/Qpyqnjt6CDhUfjnB7ryzunr0EHvu3S2fnHjX6EHg0DgDALvx+Gz+a7iq+qbRQ8AhEgCwG08fPcABcSxhBwQA7IbL2a7HsYQd8BoAWN8l1Y3Vg0YPciBurh5e3T56EDgkzgDA+h6XzX9ND6q+cfQQcGgEAKzv2tEDHKCvHz0AHBoBAOu7ZvQAB8gxhZUJAFifzWp9jimsTADA+h4zeoADdNXoAeDQCABY35eNHuAAPXz0AHBoBACs74GjBzhA3lUBK3MdAFjXqZb3q188epADc2fL9RWAlTgDAOu6PJv/LlzccmyBlQgAWJezarvj9xWsyC8rWNdFLU8B2KzWdbrlKQAfCwwr8UsK1nW6um30EAfolmz+sCoBAOu7efQAB8gxhZUJAFjfTaMHOECOKaxMAMD63jN6gAP0/0YPAIdGAMD63jl6gAPkmMLKBACsz2a1PscUViYAYH3vGD3AARIAsDLXAYD13b/lRWv3Hz3Igfhs9bDqM6MHgUPiDACs77PVG0cPcUB+L5s/rE4AwG68dvQAB8SxhB0QALAbvzN6gAPiWMIOeA0A7MZF1QeqPzd6kD33oeqrWz4OGFiRMwCwG6er/zh6iAPwy9n8Adgz17V8gI11/PUNRz7qALABb278Jrqv638f43gD58lTALBb/2r0AHvsZ0YPAADHdXH17sY/mt639Z7qkmMcb+A8OQMAu3Vn9S9HD7GHfqq6Y/QQAHAhLmt5S+DoR9X7st5XXXqsIw0AG/MDjd9Y92V9/zGPMQBs0isbv7lufb3q2EcXADbqMS0fajN6k93q+mx19bGPLnAkF48eACZyY8sm992jB9mof9hylgQADs6p6r80/tH21tYr8tkkABy4K1te6T56093K+mD18As6ogCwJ55Y3db4zXf0urV6wgUeSwDYK99b3d74TXjUuqP6qxd8FAFgD/1Qy0cHj96MT3qdrp6/wvEDgL31ouaKgNPVP1jlyAHAnvvh5ng64I7qx1Y6ZgBwEL6vw35h4GdbLokMANzDk6o/afxmvfb6YPUtKx4nADg4X1b9ZuM37bXWb1ePWPUIAcCBuqj6R9XnG7+BH3d9ruXyvq7wBwBHdFX16sZv5kddr62u3cHxAICpPLf6cOM39vtaH6qevaNjAABTuqzlLXR/3PiN/p7rI9WLq8t3dusBYHKXVX+rekfjN/53VC+oLt3pLQYAvsDjq5+tPtrJbfo3Vi+pnpwX+MHe8j8vHIZLq6dVTz/z5+Oqi1f6b99ZvbnlhX2vqa5veXcCsMcEABymK1s+cvja6uqz1pXVA87x73ymuql6V/XOM3++rXpj9ckdzwucMAEA87m4enD1kDP//Knq0y2P9AEAAAAAAAAAAAAAAAAAAAAAAAAAAAAAAIBj8GFAcHQPq65p+XS9K6oHtXywzgOrywbONYPPVbe0fIDRzdWt/dknF944cC7YOwIA7t2jqu+onlJd17Lxf/nQiTiXj1fvaPkI4/9V/U71kaETwYYJAPhC96u+p3pGy8b/9WPH4QK9rSUEXlW9urpj7DgAbM111U+3PGK8yzrI9YnqJdWTA2Bql1YvqP5v4zcn62TXDdXfbLkPADCJy6ofqz7Y+I3IGrs+Ur24ujwADtYl1QurjzZ+47G2tT5S/f3q4gA4KI+v3tT4jcba9npL9a0BsPceXr2sOt34zcXaj3Vn9dKW+w4Ae+ip1Ycav6FY+7k+Wn1XcKA838UhOtXywq5fbLlCHxzHFdVzq4uq17dEAQAb9Yjqfzb+0aN1WOt/5AqQHBhXAuSQPLrlam9XjR6Eg/S+lqtEvnv0ILCGi0YPACt5bMtpWps/u/Lols8YeNzoQWANAoBD8NTqd6uvGj0IB++RLRHgxYHsPU8BsO+e0nLa/wGjB2Eqn6m+uyU8YS8JAPbZN1Svq64cPQhT+lT17S0XD4K9IwDYV4+ufq961OhBmNqHqydV7x88BxyZAGAfPbx6Y/WY0YNA9a7qidVNoweBo/AiQPbNqerns/mzHVdXv5QHVOwZVwJk37yo5VPbYEuurj7ZcmYK9oJiZZ88oeW9/peOHgS+hNtb3pL6htGDwPkQAOyLB1U3VF89ehC4F++rvrG6ZfQgcF88BcC++KnqmaOHgPtwZXVJy+dRwKY5A8A+eGz15up+oweB83BH9fjqj0YPAvfGuwDYulPVz2XzZ39c0nKf9QCLTRMAbN0PtbywCvbJU6rnjB4C7o1CZcsurt6eT/hjP72juq46PXoQ+FKcAWDLnpPNn/31ddUPjB4CzsUZALbqVMuLqB47ehC4AG9teVugswBsjjMAbNX3Z/Nn/11X/eXRQ8CXIgDYqr83egBYifsym+QpALboq6oP5EJVHIbTLVew/JPRg8DZnAFgi56XzZ/DcVH13NFDwD05A8AW3ZDn/zksb2t5PQBshjMAbM1fzObP4bm2+qbRQ8DZBABb892jB4Adcd9mUwQAW/O00QPAjrhvsyleA8CWXFrdWF0xehDYgVurh1WfHz0IlDMAbMsTs/lzuK6ovnn0EHA3AcCWPGn0ALBjTx49ANxNALAlXz96ANixrxs9ANxNALAlfjly6NzH2QwvAmRLbqoeOnoI2KFPVleOHgLKGQC241HZ/Dl8D62+YvQQUAKA7fia0QPACXn06AGgBADb8eDRA8AJedDoAaAEANvxwNEDwAkRAGyCAGAr/FJkFu7rbIIAYCv8UmQWnu5iEwQAW3H56AHghLjcNZsgANgK16RgFu7rbIIAAIAJCQAAmJAAAIAJCQAAmJAAgHN7a/W86trqquoZ1X8eOhH35teq76ke0/Iz++Hq7UMnAuA+/Xh114bWazr3WxO3NqtVLzrHz+ry6rUbmO/s9ePnmBVOlDMA8MVur360uu0cf//Pqzed3DjchzdU/+Icf3db9SPVHSc2DewJAQBf7E3VB+/l7++qfv2EZuG+3dfTMh+o/uAkBoF9IgDgi33kPL7mwzufgvPl5wXHIADgi9210tdwMvy84BgEAABMSAAAwIQEAABMSAAAwIQEAABMSAAAwIQEAABMSAAAwIQEAABMSAAAwIQEAABMSAAAwIQEAABMSAAAwIQEAABMSAAAwIQEAABMSAAAwIQEAABMSAAAwIQEAABMSAAAwIQEAABMSAAAwIQEAABMSAAAwIQEAABMSAAAwIQEAABMSAAAwIQEAABMSAAAwIQEAABMSAAAwIQEAABMSAAAwIQEAABMSAAAwIQEAABMSAAAwIQEAABMSAAAwIQEAABMSAAAwIQEAABMSAAAwIQEAABMSAAAwIQEAABMSAAAwIQEAABMSAAAwIQEAABMSAAAwIQEAABMSAAAwIQEAABMSAAAwIQEAABMSAAAwIQEAABMSAAAwIQEAABMSAAAwIQEAABMSAAAwIQEAABMSAAAwIQEAABMSAAAwIQEAABMSAAAwIQEAABMSAAAwIQEAABMSAAAwIQEAABMSAAAwIQEAABMSAAAwIQEAABMSAAAwIQEAABMSAAAwIQEAABMSAAAwIQEAABMSAAAwIQEAABMSAAAwIQEAABMSAAAwIQEAABMSAAAwIQEAABMSAAAwIQEAABMSAAAwIQEAABMSAAAwIQEAABMSAAAwIQEAABMSAAAwIQEAABMSAAAwIQEAABMSAAAwIQEAABMSAAAwIQEAABMSAAAwIQEAABMSAAAwIQEAABMSACwFadHD3CWLc3COrb0M71z9ABQAoDtuHX0AGe5efQArO620QOc5ZbRA0AJALbj46MHOMufjh6A1W3p/rWlWZiYAGAr3jV6gLNsaRbWsaWf6ZZmYWICgK14W9t5GuBNowdgdX8weoAzbqnePnoIKAHAdny+ev3oIaqPVG8dPQSru6H62OghqtdVt48eAkoAsC2/OnqAlhnuGj0Eqztd/afRQ7SN+zhUAoBt+fXqxoHf/67q5wd+f3brZY2Nu09UvzHw+8MXEABsyS3Vvx74/f9ry6liDtP/qV4x8Pv/TNt5nQvA5lxeva/lkdpJrs9V1xxhzucOmNH60uu59/GzOttV1WcHzPiB6oojzAk75wwAW3Nb9XdafmmepJ+s3nnC35OT9+7qn57w9zxdvSCP/gHOyz/r5B6dvaKjx7AzANtZRzkDUMvP+rdOcL5/csT5AKZ2qnp5u//l/KbqgceYTwBsZx01AKoe1HJtgF3P9ost92XYHE8BsFV3VT9a/dsdfo/rq+/KtdlndHP1tOq3d/g9fqF6fst9GYBjeF7L86drPSo7Xf1sdekFzOQMwHbWcc4A3O2S6qdb7hNrzfOZ6oUXMBMAZ7mm5dHahf5yvqF66grzCIDtrAsJgLs9reUKkBc6y6urq1eYB4B7+Pbqv7dcTvUov5h/v3pO6z3tJQC2s9YIgKqLq79eveGI3//z1X+rvm2lOeBEXDJ6ADii68+sr6ie0fJo/rrqa1te2HVJ9enqg9U7qt+tXlW95+RHZc/cWf3KmfWYlvvXk1vOPv356sHVHS33r/e1nDG4vuX+5SN+ASbhDMB21lpnAGAq3gUAABMSAAAwIQEAABMSAAAwIQEAABMSAAAwIQEAABMSAAAwIQEAABMSAAAwIQEAABPyYUAwnw9VL63efuafr61eUH3lsImAEycAYC7XV3+l5RPtzvYz+UhbmIqnAGAen65+sC/e/Ks+VT2ruvlEJwKGEQAwj1d0759b/7HqlSc0CzCYAIB5vP88vua9ux4C2AYBAPO4c6WvAQ6AAACACQkAAJiQAACACQkAAJiQAACACQkAAJiQAACACQkAAJiQAACACQkAAJiQAACACQkAAJiQAACACQkAAJiQAACACQkAAJiQAACACQkAAJiQAACACQkAAJiQAACACQkAAJiQAACACQkAAJiQAACACQkAAJiQAACACQkAAJiQAACACQkAAJiQAACACQkAAJiQAACACQkAAJiQAACACQkAAJiQAACACQkAAJiQAACACQkAAJiQAACACQkAAJiQAACACQkAAJiQAACACQkAAJiQAACACQkAAJiQAACACQkAAJiQAACACQkAAJiQAACACQkAAJiQAACACQkAAJiQAACACQkAAJiQAACACQkAAJiQAACACQkAAJiQAACACQkAAJiQAACACQkAAJiQAACACQkAAJiQAACACQkAAJiQAACACQkAAJiQAACACQkAAJiQAACACQkAAJiQAACACQkAAJiQAACACQkAAJiQAACACQkAAJiQAACACQkAAJiQAACACQkAAJiQAACACQkAAJiQAACACQkAAJiQAACACQkAAJiQAACACQkAAJiQAACACQkAAJiQAACACQkAAJiQAACACQkAAJiQAACACQkAAJiQAACACQkAAJiQAACACQkAAJiQAACACQkAAJiQAACACQkAAJiQAACACQkAAJiQAACACQkAAJiQAACACQkAAJiQAACACQkAAJiQAACACQkAAJiQAACACQkAAJiQAACACQkAAJiQAACACQkAAJiQAACACQkAAJiQAACACQkAAJiQAACACQkAAJiQAACACQkAAJiQAACACQkAAJiQAACACQkAAJiQAACACQkAAJiQAACACQkAAJiQAACACQkAAJiQAACACQkAAJiQAACACQkAAJiQAACACQkAAJiQAACACQkAOJ7Towc4hrtW+pqt2cefBQwnAOB4bhs9wDHceh5fc6i3C7gHAQDHc/PoAY7h0+fxNYd6u4B7EABwPH88eoBj+OB5fM2h3i7gHgQAHM/7qs+NHuKI3rnS12zJ5xIAcCwCAI7nzuqPRg9xBDe1RMt9eU/1qR3Psqa3tPwsgCMSAHB8148e4Aiu7/xeLX9n9frdjrKq14weAPaVAIDj+83RAxzBbx3haw/1dgHAKk5V72157/yW12eqhx7hdj2s+uwG5r6v9f4zPwPgGJwBgOO7q/p3o4c4D79effIIX39j9Rs7mmVNL20/L1wEwAF4SMvmOvrR8LnW6eqxx7hd17a8HmD0/Odan+poZzUAYHU/2fgN8Vzrly/gdv3KBuY/1/qJC7hdALCKy1rePz96U/xSj5K/8gJu1yPb5tmNd1f3v4DbBQCr+bbq9sZvjmevH1nhdj1/A7fj7HV79aQVbhcArOYnGr9B3r3+/Yq365c2cHvuXi9e8XYBwCpOVS9r/Cb52tY9RX5p9dsbuF0vz9v+ANioS6pfa9wm+YaWdyas7SHVGwferl9tObYAsFkXV/+mk98kX1FdvsPbdUXLlfdO+nb9XK5ZAsAeeV51a7vfIE9XP90SHrt2cfWPqztO4HZ9pnrhCdwmAFjdtS3Pye9qk/yjxrwq/inVDceY93zXa6prTuzWAMAOnKqe1bJZr7VBvr/62419Xvx+1d+tPtB6t+st1V87yRsBALt2qnpmyxX2buvom+PtLc/zP6dl892K+7XM9MqOdy2EW6v/UH1PXuUPJ8b/bDDGA1pO3T+1uq66unpE9cCW59lvrj5Wvad6e/X66nUtV/fbsoe2XBTpKS1Pf3xtf3a77qxuqT7acuXEt1XXV7/f8nw/AAAAAAAAAAAAAAAAAAAAAAAAAAAAAAAAAADsj/8PKlqQ/SvOXvEAAAAASUVORK5CYII=;" vertex="1" parent="1">
          <mxGeometry x="810" y="210" width="250" height="250" as="geometry" />
        </mxCell>
      </root>
    </mxGraphModel>
  </diagram>
</mxfile>
